/* XPM */
static char * floor_xpm[] = {
"64 64 116 2",
"  	c None",
". 	c #58963A",
"+ 	c #57953B",
"@ 	c #5A973B",
"# 	c #58973D",
"$ 	c #58963C",
"% 	c #56963B",
"& 	c #58953C",
"* 	c #4A873E",
"= 	c #58953B",
"- 	c #59963B",
"; 	c #58953A",
"> 	c #4A7139",
", 	c #528F3D",
"' 	c #56953C",
") 	c #58943B",
"! 	c #57963B",
"~ 	c #57963A",
"{ 	c #48883E",
"] 	c #5A9741",
"^ 	c #57953D",
"/ 	c #58963B",
"( 	c #57973C",
"_ 	c #55943C",
": 	c #55933D",
"< 	c #59953B",
"[ 	c #4A873D",
"} 	c #56953A",
"| 	c #57943C",
"1 	c #57953A",
"2 	c #579439",
"3 	c #57933B",
"4 	c #4C8B3D",
"5 	c #4C8A3C",
"6 	c #58953D",
"7 	c #56943D",
"8 	c #53903C",
"9 	c #49893D",
"0 	c #4A893D",
"a 	c #4B893F",
"b 	c #59963D",
"c 	c #56953D",
"d 	c #57953C",
"e 	c #52913C",
"f 	c #56953B",
"g 	c #5E9D46",
"h 	c #5C9C44",
"i 	c #4C8A3A",
"j 	c #4E8D3D",
"k 	c #4A893E",
"l 	c #4A893C",
"m 	c #4A893A",
"n 	c #57973A",
"o 	c #58963D",
"p 	c #55953A",
"q 	c #52903C",
"r 	c #58943C",
"s 	c #58973B",
"t 	c #58933B",
"u 	c #4C893D",
"v 	c #498B3D",
"w 	c #498B3E",
"x 	c #4B8A3E",
"y 	c #59953C",
"z 	c #4C8C3D",
"A 	c #59963C",
"B 	c #57943B",
"C 	c #4C8C3B",
"D 	c #4A8A3E",
"E 	c #4D8B3E",
"F 	c #4D8C3F",
"G 	c #4E8B3E",
"H 	c #59973A",
"I 	c #4A883D",
"J 	c #4D8D3B",
"K 	c #599539",
"L 	c #59943A",
"M 	c #54933C",
"N 	c #579440",
"O 	c #58943D",
"P 	c #4E8D40",
"Q 	c #4D8B3C",
"R 	c #599739",
"S 	c #59983B",
"T 	c #59963A",
"U 	c #49893E",
"V 	c #58953E",
"W 	c #55943B",
"X 	c #539047",
"Y 	c #54954C",
"Z 	c #4C8C3E",
"` 	c #4B8C3F",
" .	c #58973A",
"..	c #4D8D40",
"+.	c #54913C",
"@.	c #48863B",
"#.	c #508E3C",
"$.	c #56963A",
"%.	c #5A983E",
"&.	c #4F8B45",
"*.	c #468740",
"=.	c #4A883C",
"-.	c #265B33",
";.	c #58973C",
">.	c #59943D",
",.	c #4C873E",
"'.	c #56973B",
").	c #45823C",
"!.	c #45823B",
"~.	c #4A8843",
"{.	c #2F6335",
"].	c #57973D",
"^.	c #5A9641",
"/.	c #47813E",
"(.	c #508F3C",
"_.	c #47863C",
". + @ + # $ % & * & = & - ; + > . + @ + # $ % & * & = & - ; + > . + @ + # $ % & * & = & - ; + > . + @ + # $ % & * & = & - ; + > ",
"= , = ' = ) ! ~ { ] ^ / $ ( _ : = , = ' = ) ! ~ { ] ^ / $ ( _ : = , = ' = ) ! ~ { ] ^ / $ ( _ : = , = ' = ) ! ~ { ] ^ / $ ( _ : ",
"< [ } | 1 + | | 2 3 4 5 / 6 7 8 < [ } | 1 + | | 2 3 4 5 / 6 7 8 < [ } | 1 + | | 2 3 4 5 / 9 0 a b c | / d e f & - g h = i 9 0 a ",
"j k k 9 0 a b c | / d e f & - g h = i 9 0 a b c | / d e f & - g h = 9 0 a b c | / d e f & 0 l m d + n o p q r s $ ) ~ t u 0 l m ",
"} v 4 0 l m d + n o p q r s $ ) ~ t u 0 l m d + n o p q r s $ ) ~ t 0 l m d + n o p q r s @ + # $ % & * & = & - ; + > . + @ + # ",
"- w x @ + # $ % & * & = & - ; + > . + @ + # $ % & * & = & - ; + > . @ + # $ % & * & = & - = ' = ) ! ~ { ] ^ / $ ( _ : = , = ' = ",
"y z - = ' = ) ! ~ { ] ^ / $ ( _ : = , = ' = ) ! ~ { ] ^ / $ ( _ : = = ' = ) ! ~ { ] ^ / $ } | 1 + | | 2 3 4 5 / 6 7 8 < [ } | 1 ",
"A = ! } | 1 + | | 2 3 4 5 / 6 7 8 < [ } | 1 + | | 2 3 4 5 / 6 7 8 < } | 1 + | | 2 3 4 5 / k x d B ) } $ - 4 C D E F G j k k x d ",
"H < $ k x d B ) } $ - 4 C D E F G j k k x d B ) } $ - 4 C D E F G j k x d B ) } $ - 4 C D 4 I J K L d = / M | N O P Q } v 4 I J ",
"R S T 4 I J K L d = / M | N O P Q } v 4 I J K L d = / M | N O P Q } 4 I J K L d = / M | N x U k V 1 + y & ! H W # X Y - w x U k ",
"Z `  .x U k V 1 + y & ! H W # X Y - w x U k V 1 + y & ! H W # X Y - x U k V 1 + y & ! H W + - & & $ % & * & = & - ; + > . + - & ",
"..+.= + - & & $ % & * & = & - ; + > . + - & & $ % & * & = & - ; + > + - & & $ % & * & = & , / / @.) ! ~ { ] ^ / $ ( _ : = , / / ",
"#.$.O , / / @.) ! ~ { ] ^ / $ ( _ : = , / / @.) ! ~ { ] ^ / $ ( _ : , / / @.) ! ~ { ] ^ / [ < %.&.+ | | 2 3 4 5 / 6 7 8 < [ < %.",
"! } *.[ < %.&.+ | | 2 3 4 5 / 6 7 8 < [ < %.&.+ | | 2 3 4 5 / 6 7 8 [ < %.&.+ | | 2 3 4 5 k < =.-.B ) } $ - 4 C D E F G j k < =.",
"= i 9 k < =.-.B ) } $ - 4 C D E F G j k < =.-.B ) } $ - 4 C D E F G k < =.-.B ) } $ - 4 C v ;.>.,.K L d = / M | N O P Q } v ;.>.",
"t u 0 v ;.>.,.K L d = / M | N O P Q } v ;.>.,.K L d = / M | N O P Q v ;.>.,.K L d = / M | w A '.o V 1 + y & ! H W # X Y - w A '.",
". + @ w A '.o V 1 + y & ! H W # X Y - w A '.o V 1 + y & ! H W # X Y w A '.o V 1 + y & ! H W # X Y - w A '.$ % & * & = & - ; + > ",
"= , = ' = ) ! ~ { ] ^ / $ ( _ : = , = ' = ) ! ~ { ] ^ / $ ( _ : = , = ' = ) ! ~ { ] ^ / $ ( _ : = , = ' = ) ! ~ { ] ^ / $ ( _ : ",
"< [ } | 1 + | | 2 3 4 5 / 6 7 8 < [ } | 1 + | | 2 3 4 5 / 6 7 8 < [ } | 1 + | | 2 3 4 5 / 6 7 8 < [ } | 1 + | | 2 3 4 5 / 6 7 8 ",
"j k k x d B ) } $ - 4 C D E F G j k k x d B ) } $ - 4 C D E F G j k k x d B ) } $ - 4 C D E F G j k k x d B ) } $ - 4 C D E F G ",
"} v 9 0 a b c | / d e f & - g h = i 9 0 a K L d = / M | N O P Q } v 4 I J K L d = / M | N O P Q } v 4 I J K L d = / M | N O P Q ",
"- w 0 l m d + n o p q r s $ ) ~ t u 0 l m V 1 + y & ! 9 0 a b c | / d e f & - g h = i 9 0 a 0 a b c | / d e f & - g h = i 9 0 a ",
"y z @ + # $ % & * & = & - ; + > . + @ + # & $ % & * & 0 l m d + n o p q r s $ ) ~ t u 0 l m l m d + n o p q r s $ ) ~ t u 0 l m ",
"A = = ' = ) ! ~ { ] ^ / $ ( _ : = , = ' = @.) ! ~ { ] @ + # $ % & * & = & - ; + > . + @ + # + # $ % & * & = & - ; + > . + @ + # ",
"H < } | 1 + | | 2 3 4 5 / 6 7 8 < [ } | 1 &.+ | | 2 3 = ' = ) ! ~ { ] ^ / $ ( _ : = , = ' = ' = ) ! ~ { ] ^ / $ ( _ : = , = ' = ",
"R S k x d B ) } $ - 4 C D E F G j k k x d -.B ) } $ - } | 1 + | | 2 3 4 5 / 6 7 8 < [ } | 1 | 1 + | | 2 3 4 5 / 6 7 8 < [ } | 1 ",
"Z ` 4 I J K L d = / M | N O P Q } v 4 I J ,.K L d = / k x d B ) } $ - 4 C D E F G j k k x d x d B ) } $ - 4 C D E F G j k k x d ",
"..+.x U k V 1 + y & ! H W # X Y - w x U k o V 1 + y & 4 I J K L d = / M | N O P Q } v 4 I J I J K L d = / M | N O P Q } v 4 I J ",
"#.$.+ - & & $ % & * & = & - ; + > . + - & 1 d ).!.~.{.x U k V 1 + y & ! H W # X Y - w x U k U k V 1 + y & ! H W # X Y - w x U k ",
"! } , / / @.) ! ~ { ] ^ / $ ( _ : = , / / d | ].& ^./.+ - & & $ % & * & = & - ; + > . + - & - & & $ % & * & = & - ; + > . + - & ",
"= i [ < %.&.+ | | 2 3 4 5 / 6 7 8 < [ < %.b c | / d e , / / @.) ! ~ { ] ^ / $ ( _ : = , / / / / @.) ! ~ { ] ^ / $ ( _ : = , / / ",
"t u k < =.-.B ) } $ - 4 C D E F G j k < =.d + n o p q [ < %.&.+ | | 2 3 4 5 / 6 7 8 < [ < %.< %.&.+ | | 2 3 4 5 / 6 7 8 < [ < %.",
". + v ;.>.,.K L d = / M | N O P Q } v ;.>.$ % & * & = k < =.-.B ) } $ - 4 C D E F G j k < =.< =.-.B ) } $ - 4 C D E F G j k < =.",
"= , w A '.o V 1 + y & ! H W # X Y - w A '.) ! ~ { ] ^ v ;.>.,.K L d = / M | N O P Q } v ;.>.;.>.,.K L d = / M | N O P Q } v ;.>.",
"< [ } | 1 + | | 2 3 4 5 / 6 7 8 < [ } | 1 + | | 2 3 4 w A '.o V 1 + y & ! H W # X Y - w A '.A '.o V 1 + y & ! H W # X Y - w A '.",
"j k k x d B ) } $ - 4 C D E F G (.(.(.(.d B ) } $ $ % & * & = & - ; + > . + ) } $ - 4 C D E F G j k k x d B ) } $ - 4 C D E F G ",
"} v 4 9 0 a b c | / d e f & - g h = i 9 0 a L d = ) ! ~ { ] ^ / $ ( _ : = , L d = / M | N O P Q } v 4 I J K L d = / M | N O P Q ",
"- w x 0 l m d + n o p q r s $ ) ~ 9 0 a b c | / d e f & - g h = i 9 0 a < [ 1 + y & ! H W # X Y - w x U k V 1 + y & ! H W # X Y ",
"y z - @ + # $ % & * & = & - ; + > 0 l m d + n o p q r s $ ) ~ t u 9 0 a b c | / d e f & - g h 9 0 a b c | / d e f & - g h = i 9 ",
"A = ! = ' = ) ! ~ { ] ^ / $ ( _ : @ + # $ % & * & = & - ; + > . + 0 l m d + n o p q r s $ ) ~ 0 l m d + n o p q r s $ ) ~ t u 0 ",
"H < $ } | 1 + | | 2 3 4 5 / 6 7 8 = ' = ) ! ~ { ] ^ / $ ( _ : = , @ + # $ % & * & = & - ; + > @ + # $ % & * & = & - ; + > . + @ ",
"R S T k x d B ) } $ - 4 C D E F G } | 1 + | | 2 3 4 5 / 6 7 8 < [ = ' = ) ! ~ { ] ^ / $ ( _ : = ' = ) ! ~ { ] ^ / $ ( _ : = , = ",
"Z `  .4 I J K L d = / M | N O P Q k x d B ) } $ - 4 C D E F G j k } | 1 + | | 2 3 4 5 / 6 7 8 } | 1 + | | 2 3 4 5 / 6 7 8 < [ } ",
"..+.= x U k V 1 + y & ! H W # X Y 4 I J K L d = / M | N O P Q } v k x d B ) } $ - 4 C D E F G k x d B ) } $ - 4 C D E F G j k k ",
"#.$.O + - & & $ % & * & = & - ; + x U k V 1 + y & ! H W # X Y - w 4 I J K L d = / M | N O P Q 4 I J K L d = / M | N O P Q } v 4 ",
"! } *., / / @.) ! ~ { ] ^ / $ ( _ + - & & $ % & * & = & - ; + > . x U k V 1 + y & ! H W # X Y x U k V 1 + y & ! H W # X Y - w x ",
"= i 9 [ < %.&.+ | | 2 3 4 5 / 6 7 , / / @.) ! ~ { ] ^ / $ ( _ : = + - & & $ % & * & = & - ; + + - & & $ % & * & = & - ; + > . + ",
"t u 0 k < =.-.B ) } $ - 4 C D E F [ < %.&.+ | | 2 3 4 5 / 6 7 8 < , / / @.) ! ~ { ] ^ / $ ( _ , / / @.) ! ~ { ] ^ / $ ( _ : = , ",
". + @ v ;.>.,.K L d = / M | N O P k < =.-.B ) } $ - 4 C D E F G j [ < %.&.+ | | 2 3 4 5 / 6 7 [ < %.&.+ | | 2 3 4 5 / 6 7 8 < [ ",
"= , = w A '.o V 1 + y & ! H W # X v ;.>.,.K L d = / M | N O P Q } k < =.-.B ) } $ - 4 C D E F k < =.-.B ) } $ - 4 C D E F G j k ",
"< [ } | 1 + 9 0 a b c | / d e f & - g h = i 9 9 0 a b c | / d e f & - g h = 9 0 a b c | / d e f & - g h = i 9 0 a | N O P Q } v ",
"j k k x d B 0 l m d + n o p q r s $ ) ~ t u 0 0 l m d + n o p q r s $ ) ~ t 0 l m d + n o p q r s $ 9 0 a b c | / d e f & - g h ",
"} v 4 I J K @ + # $ % & * & = & - ; + > . + @ @ + # $ % & * & = & - ; + > . @ + # $ % & * & = & - ; 0 l m d + n o p q r s $ ) ~ ",
"- w x U k V = ' = ) ! ~ { ] ^ / $ ( _ : = , = = ' = ) ! ~ { ] ^ / $ ( _ : = = ' = ) ! ~ { ] ^ / $ ( @ + # $ % & * & = & - ; + > ",
"y z - - & & } | 1 + | | 2 3 4 5 / 6 7 8 < [ } } | 1 + | | 2 3 4 5 / 6 7 8 < } | 1 + | | 2 3 4 5 / 6 = ' = ) ! ~ { ] ^ / $ ( _ : ",
"A = ! / / @.k x d B ) } $ - 4 C D E F G j k k k x d B ) } $ - 4 C D E F G j k x d B ) } $ - 4 C D E } | 1 + | | 2 3 4 5 / 6 7 8 ",
"H < $ < %.&.4 I J K L d = / M | N O P Q } v 4 4 I J K L d = / M | N O P Q } 4 I J K L d = / M | N O k x d B ) } $ - 4 C D E F G ",
"R S T < =.-.x U k V 1 + y & ! H W # X Y - w x x U k V 1 + y & ! H W # X Y - x U k V 1 + y & ! H W # 4 I J K L d = / M | N O P Q ",
"Z `  .;.>.,.+ - & & $ % & * & = & - ; + > . + + - & & $ % & * & = & - ; + > + - & & $ % & * & = & - x U k V 1 + y & ! H W # X Y ",
"..+.= A '.o , / / @.) ! ~ { ] ^ / $ ( _ : = , , / / @.) ! ~ { ] ^ / $ ( _ : , / / @.) ! ~ { ] ^ / $ + - & & $ % & * & = & - ; + ",
"#.$.O L / 1 [ < %.&.+ | | 2 3 4 5 / 6 7 8 < [ [ < %.&.+ | | 2 3 4 5 / 6 7 8 [ < %.&.+ | | 2 3 4 5 / , / / @.) ! ~ { ] ^ / $ ( _ ",
"! } *._.} d k < =.-.B ) } $ - 4 C D E F G j k k < =.-.B ) } $ - 4 C D E F G k < =.-.B ) } $ - 4 C D [ < %.&.+ | | 2 3 4 5 / 6 7 ",
"= i 9 0 a b v ;.>.,.K L d = / M | N O P Q } v v ;.>.,.K L d = / M | N O P Q v ;.>.,.K L d = / M | N k < =.-.B ) } $ - 4 C D E F ",
"t u 0 l m d w A '.o V 1 + y & ! H W # X Y - w w A '.o V 1 + y & ! H W # X Y w A '.o V 1 + y & ! H W v ;.>.,.K L d = / M | N O P "};
